<svg width="164" height="37" viewBox="0 0 164 37" fill="none" xmlns="http://www.w3.org/2000/svg">
<path fill-rule="evenodd" clip-rule="evenodd" d="M38.2595 3.06239C37.3194 2.59024 36.1561 2.45109 34.8561 2.68757C34.0546 2.83396 33.2 3.12352 32.3138 3.56511C31.463 3.99061 30.6484 4.52389 29.8766 5.14244L33.0075 6.71574C33.7793 6.0972 34.5939 5.56391 35.4438 5.13922C36.33 4.69683 37.1836 4.40726 37.9861 4.26087C39.2861 4.02439 40.4494 4.16354 41.3895 4.6357L38.2595 3.06239Z" fill="#F0A72E"/>
<mask id="mask0" mask-type="alpha" maskUnits="userSpaceOnUse" x="0" y="0" width="31" height="35">
<path fill-rule="evenodd" clip-rule="evenodd" d="M0 0.609169H30.3026V34.2347H0V0.609169Z" fill="white"/>
</mask>
<g mask="url(#mask0)">
<path fill-rule="evenodd" clip-rule="evenodd" d="M27.1726 1.17282C26.0865 0.626667 24.7409 0.466602 23.2382 0.74008C22.3102 0.908993 21.3217 1.2436 20.2961 1.75597C18.5898 2.60858 16.9876 3.84728 15.5983 5.31199C13.0421 8.00736 11.2065 11.4677 10.762 14.6891C9.99487 14.8387 9.17285 15.1226 8.32945 15.5441C6.85838 16.2785 5.47751 17.345 4.28075 18.6063C1.71614 21.3064 -0.00971918 24.8971 -0.000420372 28.0228C0.00794856 30.3023 0.9369 31.9069 2.4368 32.6606L5.56678 34.2347C4.06595 33.4803 3.137 31.8756 3.12956 29.5961C3.11933 26.4704 4.84612 22.8798 7.4098 20.1796C8.60749 18.9183 9.98743 17.8518 11.4594 17.1174C12.3019 16.6959 13.1248 16.412 13.8911 16.2624C14.3356 13.041 16.1721 9.58067 18.7283 6.8853C20.1176 5.42058 21.7188 4.18188 23.4261 3.32928C24.4508 2.81691 25.4393 2.4823 26.3673 2.31338C27.8709 2.0391 29.2155 2.19997 30.3025 2.74612L27.1726 1.17282Z" fill="#F0A72E"/>
</g>
<path fill-rule="evenodd" clip-rule="evenodd" d="M23.4258 3.32944C28.2668 0.911568 32.2895 2.44465 33.0073 6.71574C33.7791 6.0972 34.5937 5.56392 35.4436 5.13922C40.0577 2.83476 43.8125 4.68557 43.8274 9.27115C43.8423 13.8575 40.1116 19.4462 35.4975 21.7506L11.5131 33.729C6.89254 36.0366 3.14419 34.1826 3.12932 29.5962C3.11444 25.0098 6.83768 19.4252 11.4583 17.1176C12.3026 16.6961 13.1246 16.4122 13.8908 16.2625C14.5771 11.2901 18.5774 5.75052 23.4258 3.32944Z" fill="#FFCA00"/>
<path fill-rule="evenodd" clip-rule="evenodd" d="M62.7052 5.31441C61.7651 4.84225 60.6018 4.7031 59.3019 4.93958C58.4994 5.08597 57.6457 5.37554 56.7586 5.81712C55.9087 6.24182 55.0942 6.77591 54.3224 7.39445L57.4523 8.96775C58.2241 8.34921 59.0387 7.81512 59.8896 7.39123C60.7748 6.94804 61.6294 6.65928 62.4309 6.51288C63.7318 6.27641 64.8942 6.41556 65.8343 6.88771L62.7052 5.31441Z" fill="#D43E3E"/>
<path fill-rule="evenodd" clip-rule="evenodd" d="M51.6138 3.41977C50.5277 2.87361 49.1821 2.71274 47.6795 2.98622C46.7514 3.15514 45.7648 3.48974 44.741 4.00131C43.0403 4.8507 41.4427 6.08618 40.0563 7.54848C37.4982 10.2463 35.6589 13.713 35.2135 16.9376C34.4398 17.0905 33.6243 17.3712 32.7744 17.7959C31.3052 18.5294 29.9262 19.596 28.7294 20.8564C26.1648 23.5566 24.4352 27.1488 24.4454 30.2745C24.4529 32.5532 25.3837 34.1563 26.8827 34.9108L30.0126 36.4833C28.5127 35.7296 27.5819 34.1265 27.5745 31.8478C27.5643 28.7221 29.2948 25.1299 31.8585 22.4297C33.0561 21.1685 34.4352 20.1027 35.9034 19.3692C36.7552 18.9445 37.5698 18.6638 38.3434 18.5109C38.7889 15.2855 40.6282 11.8196 43.1863 9.12179C44.5727 7.65948 46.1703 6.42401 47.871 5.57381C48.8939 5.06305 49.8814 4.72844 50.8085 4.55953C52.3121 4.28605 53.6567 4.44692 54.7438 4.99307L51.6138 3.41977Z" fill="#D43E3E"/>
<path fill-rule="evenodd" clip-rule="evenodd" d="M47.8706 5.57397C52.7116 3.1569 56.7352 4.69643 57.4521 8.96751C58.2239 8.34897 59.0385 7.81569 59.8893 7.39099C64.5034 5.08653 68.2573 6.93734 68.2722 11.5229C68.2871 16.1093 64.5573 21.6979 59.9433 24.0024L35.9579 35.9807C31.3448 38.2852 27.5899 36.4344 27.5751 31.848C27.5602 27.2616 31.2899 21.673 35.904 19.3685C36.7548 18.9446 37.5703 18.6639 38.3431 18.5103C39.0293 13.5386 43.0297 7.99184 47.8706 5.57397Z" fill="#FA7564"/>
<path d="M80.9397 28V14.92H83.5597L85.8797 21.32C86.0264 21.7333 86.1664 22.16 86.2997 22.6C86.4331 23.0267 86.5731 23.4533 86.7197 23.88H86.7997C86.9464 23.4533 87.0797 23.0267 87.1997 22.6C87.3331 22.16 87.4731 21.7333 87.6197 21.32L89.8797 14.92H92.5197V28H90.3797V22.02C90.3797 21.7133 90.3864 21.38 90.3997 21.02C90.4264 20.66 90.4531 20.3 90.4797 19.94C90.5064 19.5667 90.5397 19.2067 90.5797 18.86C90.6197 18.5 90.6531 18.1667 90.6797 17.86H90.5997L89.5397 20.9L87.3997 26.78H86.0197L83.8597 20.9L82.8197 17.86H82.7397C82.7664 18.1667 82.7931 18.5 82.8197 18.86C82.8597 19.2067 82.8931 19.5667 82.9197 19.94C82.9597 20.3 82.9864 20.66 82.9997 21.02C83.0264 21.38 83.0397 21.7133 83.0397 22.02V28H80.9397ZM97.6723 28.24C96.8056 28.24 96.1056 27.98 95.5723 27.46C95.0389 26.9267 94.7723 26.2267 94.7723 25.36C94.7723 24.84 94.8789 24.38 95.0923 23.98C95.3189 23.5667 95.6656 23.2133 96.1323 22.92C96.6123 22.6267 97.2123 22.38 97.9323 22.18C98.6656 21.98 99.5389 21.8267 100.552 21.72C100.539 21.4667 100.499 21.2267 100.432 21C100.379 20.76 100.279 20.5533 100.132 20.38C99.9989 20.1933 99.8189 20.0533 99.5923 19.96C99.3656 19.8533 99.0856 19.8 98.7523 19.8C98.2723 19.8 97.7989 19.8933 97.3323 20.08C96.8789 20.2667 96.4323 20.4933 95.9923 20.76L95.1523 19.22C95.6989 18.8733 96.3123 18.5733 96.9923 18.32C97.6723 18.0667 98.4056 17.94 99.1923 17.94C100.419 17.94 101.332 18.3067 101.932 19.04C102.546 19.76 102.852 20.8067 102.852 22.18V28H100.952L100.792 26.92H100.712C100.272 27.2933 99.7989 27.6067 99.2923 27.86C98.7989 28.1133 98.2589 28.24 97.6723 28.24ZM98.4123 26.44C98.8123 26.44 99.1723 26.3467 99.4923 26.16C99.8256 25.9733 100.179 25.7067 100.552 25.36V23.16C99.8856 23.24 99.3256 23.3467 98.8723 23.48C98.4189 23.6133 98.0523 23.7667 97.7723 23.94C97.4923 24.1 97.2923 24.2867 97.1723 24.5C97.0523 24.7133 96.9923 24.94 96.9923 25.18C96.9923 25.62 97.1256 25.94 97.3923 26.14C97.6589 26.34 97.9989 26.44 98.4123 26.44ZM105.255 28V18.18H107.155L107.315 19.92H107.395C107.742 19.28 108.162 18.7933 108.655 18.46C109.148 18.1133 109.655 17.94 110.175 17.94C110.642 17.94 111.015 18.0067 111.295 18.14L110.895 20.14C110.722 20.0867 110.562 20.0467 110.415 20.02C110.268 19.9933 110.088 19.98 109.875 19.98C109.488 19.98 109.082 20.1333 108.655 20.44C108.228 20.7333 107.862 21.2533 107.555 22V28H105.255ZM115.826 28.24C115.253 28.24 114.766 28.1533 114.366 27.98C113.979 27.8067 113.659 27.5667 113.406 27.26C113.166 26.94 112.986 26.5667 112.866 26.14C112.759 25.7 112.706 25.2133 112.706 24.68V20H111.306V18.28L112.826 18.18L113.106 15.5H115.026V18.18H117.526V20H115.026V24.68C115.026 25.8267 115.486 26.4 116.406 26.4C116.579 26.4 116.753 26.38 116.926 26.34C117.113 26.3 117.279 26.2467 117.426 26.18L117.826 27.88C117.559 27.9733 117.253 28.0533 116.906 28.12C116.573 28.2 116.213 28.24 115.826 28.24ZM121.193 28.24C120.327 28.24 119.627 27.98 119.093 27.46C118.56 26.9267 118.293 26.2267 118.293 25.36C118.293 24.84 118.4 24.38 118.613 23.98C118.84 23.5667 119.187 23.2133 119.653 22.92C120.133 22.6267 120.733 22.38 121.453 22.18C122.187 21.98 123.06 21.8267 124.073 21.72C124.06 21.4667 124.02 21.2267 123.953 21C123.9 20.76 123.8 20.5533 123.653 20.38C123.52 20.1933 123.34 20.0533 123.113 19.96C122.887 19.8533 122.607 19.8 122.273 19.8C121.793 19.8 121.32 19.8933 120.853 20.08C120.4 20.2667 119.953 20.4933 119.513 20.76L118.673 19.22C119.22 18.8733 119.833 18.5733 120.513 18.32C121.193 18.0667 121.927 17.94 122.713 17.94C123.94 17.94 124.853 18.3067 125.453 19.04C126.067 19.76 126.373 20.8067 126.373 22.18V28H124.473L124.313 26.92H124.233C123.793 27.2933 123.32 27.6067 122.813 27.86C122.32 28.1133 121.78 28.24 121.193 28.24ZM121.933 26.44C122.333 26.44 122.693 26.3467 123.013 26.16C123.347 25.9733 123.7 25.7067 124.073 25.36V23.16C123.407 23.24 122.847 23.3467 122.393 23.48C121.94 23.6133 121.573 23.7667 121.293 23.94C121.013 24.1 120.813 24.2867 120.693 24.5C120.573 24.7133 120.513 24.94 120.513 25.18C120.513 25.62 120.647 25.94 120.913 26.14C121.18 26.34 121.52 26.44 121.933 26.44ZM133.876 28.24C133.116 28.24 132.429 28.1333 131.816 27.92C131.216 27.6933 130.696 27.34 130.256 26.86C129.829 26.38 129.496 25.7667 129.256 25.02C129.029 24.26 128.916 23.34 128.916 22.26V14.92H131.236V22.44C131.236 23.1467 131.296 23.7467 131.416 24.24C131.549 24.72 131.729 25.1067 131.956 25.4C132.196 25.6933 132.476 25.9067 132.796 26.04C133.116 26.16 133.476 26.22 133.876 26.22C134.276 26.22 134.643 26.16 134.976 26.04C135.309 25.9067 135.596 25.6933 135.836 25.4C136.076 25.1067 136.263 24.72 136.396 24.24C136.529 23.7467 136.596 23.1467 136.596 22.44V14.92H138.816V22.26C138.816 23.34 138.703 24.26 138.476 25.02C138.249 25.7667 137.916 26.38 137.476 26.86C137.049 27.34 136.529 27.6933 135.916 27.92C135.316 28.1333 134.636 28.24 133.876 28.24ZM141.732 28V14.92H145.852C146.572 14.92 147.238 14.9867 147.852 15.12C148.478 15.2533 149.018 15.48 149.472 15.8C149.925 16.12 150.278 16.54 150.532 17.06C150.785 17.5667 150.912 18.2 150.912 18.96C150.912 19.68 150.785 20.3067 150.532 20.84C150.278 21.3733 149.925 21.82 149.472 22.18C149.032 22.5267 148.505 22.7867 147.892 22.96C147.292 23.12 146.638 23.2 145.932 23.2H144.052V28H141.732ZM144.052 21.34H145.752C147.672 21.34 148.632 20.5467 148.632 18.96C148.632 18.1333 148.378 17.5667 147.872 17.26C147.378 16.94 146.645 16.78 145.672 16.78H144.052V21.34Z" fill="white"/>
</svg>
